<mxfile host="Electron" modified="2024-06-30T14:45:53.491Z" agent="Mozilla/5.0 (Windows NT 10.0; Win64; x64) AppleWebKit/537.36 (KHTML, like Gecko) draw.io/24.2.5 Chrome/120.0.6099.109 Electron/28.1.0 Safari/537.36" etag="H21Htm8GruF4RHEuzAem" version="24.2.5" type="device">
  <diagram name="Page-1" id="hDOpoCjx6ITKPzUYRDzT">
    <mxGraphModel dx="2350" dy="911" grid="0" gridSize="10" guides="1" tooltips="1" connect="1" arrows="1" fold="1" page="1" pageScale="1" pageWidth="850" pageHeight="1100" math="0" shadow="0">
      <root>
        <mxCell id="0" />
        <mxCell id="1" parent="0" />
        <mxCell id="7fCs2FhCf5SG8tmUMnyu-1" value="Manage&lt;div&gt;Customer&lt;/div&gt;&lt;div&gt;Information&lt;/div&gt;" style="rounded=1;whiteSpace=wrap;html=1;" parent="1" vertex="1">
          <mxGeometry x="250" y="60" width="210" height="160" as="geometry" />
        </mxCell>
        <mxCell id="7fCs2FhCf5SG8tmUMnyu-7" value="Managr Car&lt;div&gt;Information&lt;/div&gt;" style="rounded=1;whiteSpace=wrap;html=1;" parent="1" vertex="1">
          <mxGeometry x="250" y="320" width="210" height="170" as="geometry" />
        </mxCell>
        <mxCell id="7fCs2FhCf5SG8tmUMnyu-8" value="Monitor Car&lt;div&gt;Rentals&lt;/div&gt;" style="rounded=1;whiteSpace=wrap;html=1;" parent="1" vertex="1">
          <mxGeometry x="250" y="610" width="210" height="150" as="geometry" />
        </mxCell>
        <mxCell id="7fCs2FhCf5SG8tmUMnyu-10" value="Manage&lt;div&gt;Transactions&lt;/div&gt;" style="rounded=1;whiteSpace=wrap;html=1;" parent="1" vertex="1">
          <mxGeometry x="250" y="880" width="210" height="160" as="geometry" />
        </mxCell>
        <mxCell id="7fCs2FhCf5SG8tmUMnyu-33" style="edgeStyle=orthogonalEdgeStyle;rounded=0;orthogonalLoop=1;jettySize=auto;html=1;exitX=1.002;exitY=0.665;exitDx=0;exitDy=0;exitPerimeter=0;entryX=0.595;entryY=1.013;entryDx=0;entryDy=0;entryPerimeter=0;" parent="1" edge="1" target="7fCs2FhCf5SG8tmUMnyu-11">
          <mxGeometry relative="1" as="geometry">
            <mxPoint x="669.67" y="825" as="targetPoint" />
            <Array as="points">
              <mxPoint x="460" y="974" />
              <mxPoint x="762" y="974" />
              <mxPoint x="762" y="825" />
            </Array>
            <mxPoint x="460.0900000000001" y="970.4000000000001" as="sourcePoint" />
          </mxGeometry>
        </mxCell>
        <mxCell id="7fCs2FhCf5SG8tmUMnyu-43" value="Transaction Records" style="edgeLabel;html=1;align=center;verticalAlign=middle;resizable=0;points=[];" parent="7fCs2FhCf5SG8tmUMnyu-33" vertex="1" connectable="0">
          <mxGeometry x="0.6483" y="-2" relative="1" as="geometry">
            <mxPoint x="-10" y="89" as="offset" />
          </mxGeometry>
        </mxCell>
        <mxCell id="7fCs2FhCf5SG8tmUMnyu-35" style="edgeStyle=orthogonalEdgeStyle;rounded=0;orthogonalLoop=1;jettySize=auto;html=1;entryX=0.918;entryY=1.096;entryDx=0;entryDy=0;entryPerimeter=0;" parent="1" edge="1">
          <mxGeometry relative="1" as="geometry">
            <mxPoint x="824.4200000000001" y="542.6800000000001" as="targetPoint" />
            <mxPoint x="462" y="1004" as="sourcePoint" />
            <Array as="points">
              <mxPoint x="462" y="997" />
              <mxPoint x="824" y="997" />
            </Array>
          </mxGeometry>
        </mxCell>
        <mxCell id="7fCs2FhCf5SG8tmUMnyu-44" value="Payment Information" style="edgeLabel;html=1;align=center;verticalAlign=middle;resizable=0;points=[];" parent="7fCs2FhCf5SG8tmUMnyu-35" vertex="1" connectable="0">
          <mxGeometry x="0.6311" y="2" relative="1" as="geometry">
            <mxPoint as="offset" />
          </mxGeometry>
        </mxCell>
        <mxCell id="7fCs2FhCf5SG8tmUMnyu-11" value="Admin" style="rounded=1;whiteSpace=wrap;html=1;" parent="1" vertex="1">
          <mxGeometry x="650" y="460" width="190" height="80" as="geometry" />
        </mxCell>
        <mxCell id="7fCs2FhCf5SG8tmUMnyu-20" style="edgeStyle=orthogonalEdgeStyle;rounded=0;orthogonalLoop=1;jettySize=auto;html=1;entryX=0;entryY=0.75;entryDx=0;entryDy=0;" parent="1" target="7fCs2FhCf5SG8tmUMnyu-1" edge="1">
          <mxGeometry relative="1" as="geometry">
            <mxPoint x="217.54" y="159.54" as="targetPoint" />
            <mxPoint x="30" y="470" as="sourcePoint" />
            <Array as="points">
              <mxPoint x="20" y="470" />
              <mxPoint x="20" y="190" />
              <mxPoint x="240" y="190" />
              <mxPoint x="240" y="180" />
            </Array>
          </mxGeometry>
        </mxCell>
        <mxCell id="7fCs2FhCf5SG8tmUMnyu-21" value="Rental Information" style="edgeLabel;html=1;align=center;verticalAlign=middle;resizable=0;points=[];" parent="7fCs2FhCf5SG8tmUMnyu-20" vertex="1" connectable="0">
          <mxGeometry x="0.337" y="-2" relative="1" as="geometry">
            <mxPoint x="-1" as="offset" />
          </mxGeometry>
        </mxCell>
        <mxCell id="7fCs2FhCf5SG8tmUMnyu-12" value="User" style="rounded=1;whiteSpace=wrap;html=1;" parent="1" vertex="1">
          <mxGeometry x="-130" y="470" width="190" height="80" as="geometry" />
        </mxCell>
        <mxCell id="7fCs2FhCf5SG8tmUMnyu-14" style="edgeStyle=orthogonalEdgeStyle;rounded=0;orthogonalLoop=1;jettySize=auto;html=1;exitX=0.5;exitY=0;exitDx=0;exitDy=0;entryX=-0.032;entryY=0.324;entryDx=0;entryDy=0;entryPerimeter=0;" parent="1" edge="1">
          <mxGeometry relative="1" as="geometry">
            <mxPoint x="-28.28" y="470" as="sourcePoint" />
            <mxPoint x="249.99999999999974" y="111.83999999999992" as="targetPoint" />
            <Array as="points">
              <mxPoint x="-8.28" y="470" />
              <mxPoint x="-8.28" y="112" />
            </Array>
          </mxGeometry>
        </mxCell>
        <mxCell id="7fCs2FhCf5SG8tmUMnyu-19" value="Customer Information" style="edgeLabel;html=1;align=center;verticalAlign=middle;resizable=0;points=[];" parent="7fCs2FhCf5SG8tmUMnyu-14" vertex="1" connectable="0">
          <mxGeometry x="0.5533" y="2" relative="1" as="geometry">
            <mxPoint as="offset" />
          </mxGeometry>
        </mxCell>
        <mxCell id="7fCs2FhCf5SG8tmUMnyu-22" value="" style="edgeStyle=segmentEdgeStyle;endArrow=classic;html=1;curved=0;rounded=0;endSize=8;startSize=8;sourcePerimeterSpacing=0;targetPerimeterSpacing=0;exitX=0;exitY=0.5;exitDx=0;exitDy=0;entryX=0.865;entryY=-0.017;entryDx=0;entryDy=0;entryPerimeter=0;" parent="1" edge="1">
          <mxGeometry width="100" relative="1" as="geometry">
            <mxPoint x="250" y="406.36" as="sourcePoint" />
            <mxPoint x="34.34999999999991" y="470.0000000000001" as="targetPoint" />
            <Array as="points">
              <mxPoint x="250" y="361" />
              <mxPoint x="40" y="361" />
              <mxPoint x="40" y="401" />
              <mxPoint x="34" y="401" />
            </Array>
          </mxGeometry>
        </mxCell>
        <mxCell id="7fCs2FhCf5SG8tmUMnyu-23" value="Car Category List" style="edgeLabel;html=1;align=center;verticalAlign=middle;resizable=0;points=[];" parent="7fCs2FhCf5SG8tmUMnyu-22" vertex="1" connectable="0">
          <mxGeometry x="-0.1031" y="1" relative="1" as="geometry">
            <mxPoint x="1" as="offset" />
          </mxGeometry>
        </mxCell>
        <mxCell id="7fCs2FhCf5SG8tmUMnyu-24" value="" style="edgeStyle=segmentEdgeStyle;endArrow=classic;html=1;curved=0;rounded=0;endSize=8;startSize=8;sourcePerimeterSpacing=0;targetPerimeterSpacing=0;exitX=0.75;exitY=1;exitDx=0;exitDy=0;entryX=-0.012;entryY=0.404;entryDx=0;entryDy=0;entryPerimeter=0;" parent="1" source="7fCs2FhCf5SG8tmUMnyu-12" target="7fCs2FhCf5SG8tmUMnyu-8" edge="1">
          <mxGeometry width="100" relative="1" as="geometry">
            <mxPoint x="12.52" y="580" as="sourcePoint" />
            <mxPoint x="240" y="670" as="targetPoint" />
            <Array as="points">
              <mxPoint x="12" y="580" />
              <mxPoint x="112" y="580" />
              <mxPoint x="112" y="671" />
            </Array>
          </mxGeometry>
        </mxCell>
        <mxCell id="7fCs2FhCf5SG8tmUMnyu-36" value="Chosen Car" style="edgeLabel;html=1;align=center;verticalAlign=middle;resizable=0;points=[];" parent="7fCs2FhCf5SG8tmUMnyu-24" vertex="1" connectable="0">
          <mxGeometry x="0.277" y="1" relative="1" as="geometry">
            <mxPoint x="-1" as="offset" />
          </mxGeometry>
        </mxCell>
        <mxCell id="7fCs2FhCf5SG8tmUMnyu-26" value="" style="edgeStyle=segmentEdgeStyle;endArrow=classic;html=1;curved=0;rounded=0;endSize=8;startSize=8;sourcePerimeterSpacing=0;targetPerimeterSpacing=0;exitX=0.5;exitY=1;exitDx=0;exitDy=0;" parent="1" edge="1" source="7fCs2FhCf5SG8tmUMnyu-12">
          <mxGeometry width="100" relative="1" as="geometry">
            <mxPoint x="-139" y="926" as="sourcePoint" />
            <mxPoint x="249" y="970" as="targetPoint" />
            <Array as="points">
              <mxPoint x="-77" y="550" />
              <mxPoint x="-77" y="970" />
            </Array>
          </mxGeometry>
        </mxCell>
        <mxCell id="7fCs2FhCf5SG8tmUMnyu-38" value="Payment Details" style="edgeLabel;html=1;align=center;verticalAlign=middle;resizable=0;points=[];" parent="7fCs2FhCf5SG8tmUMnyu-26" vertex="1" connectable="0">
          <mxGeometry x="-0.5918" y="-2" relative="1" as="geometry">
            <mxPoint x="-4" as="offset" />
          </mxGeometry>
        </mxCell>
        <mxCell id="7fCs2FhCf5SG8tmUMnyu-27" value="" style="edgeStyle=segmentEdgeStyle;endArrow=classic;html=1;curved=0;rounded=0;endSize=8;startSize=8;sourcePerimeterSpacing=0;targetPerimeterSpacing=0;entryX=0.887;entryY=-0.075;entryDx=0;entryDy=0;entryPerimeter=0;" parent="1" edge="1">
          <mxGeometry width="100" relative="1" as="geometry">
            <mxPoint x="470" y="100" as="sourcePoint" />
            <mxPoint x="818.5300000000002" y="460" as="targetPoint" />
            <Array as="points">
              <mxPoint x="460" y="100" />
              <mxPoint x="460" y="106" />
              <mxPoint x="800" y="106" />
              <mxPoint x="800" y="430" />
              <mxPoint x="818" y="430" />
            </Array>
          </mxGeometry>
        </mxCell>
        <mxCell id="7fCs2FhCf5SG8tmUMnyu-39" value="Customer Information" style="edgeLabel;html=1;align=center;verticalAlign=middle;resizable=0;points=[];" parent="7fCs2FhCf5SG8tmUMnyu-27" vertex="1" connectable="0">
          <mxGeometry x="-0.7352" y="-2" relative="1" as="geometry">
            <mxPoint as="offset" />
          </mxGeometry>
        </mxCell>
        <mxCell id="7fCs2FhCf5SG8tmUMnyu-28" value="" style="edgeStyle=segmentEdgeStyle;endArrow=classic;html=1;curved=0;rounded=0;endSize=8;startSize=8;sourcePerimeterSpacing=0;targetPerimeterSpacing=0;entryX=0.5;entryY=0;entryDx=0;entryDy=0;" parent="1" edge="1">
          <mxGeometry width="100" relative="1" as="geometry">
            <mxPoint x="460" y="170" as="sourcePoint" />
            <mxPoint x="745" y="460" as="targetPoint" />
            <Array as="points">
              <mxPoint x="760" y="170" />
              <mxPoint x="760" y="430" />
              <mxPoint x="745" y="430" />
            </Array>
          </mxGeometry>
        </mxCell>
        <mxCell id="7fCs2FhCf5SG8tmUMnyu-40" value="Rental Information" style="edgeLabel;html=1;align=center;verticalAlign=middle;resizable=0;points=[];" parent="7fCs2FhCf5SG8tmUMnyu-28" vertex="1" connectable="0">
          <mxGeometry x="-0.5814" relative="1" as="geometry">
            <mxPoint as="offset" />
          </mxGeometry>
        </mxCell>
        <mxCell id="7fCs2FhCf5SG8tmUMnyu-29" value="" style="edgeStyle=segmentEdgeStyle;endArrow=classic;html=1;curved=0;rounded=0;endSize=8;startSize=8;sourcePerimeterSpacing=0;targetPerimeterSpacing=0;entryX=1.037;entryY=0.412;entryDx=0;entryDy=0;entryPerimeter=0;exitX=0.25;exitY=0;exitDx=0;exitDy=0;" parent="1" source="7fCs2FhCf5SG8tmUMnyu-11" edge="1">
          <mxGeometry width="100" relative="1" as="geometry">
            <mxPoint x="689.73" y="430" as="sourcePoint" />
            <mxPoint x="460" y="360.03999999999974" as="targetPoint" />
            <Array as="points">
              <mxPoint x="690" y="460" />
              <mxPoint x="690" y="360" />
            </Array>
          </mxGeometry>
        </mxCell>
        <mxCell id="7fCs2FhCf5SG8tmUMnyu-41" value="Car Categories" style="edgeLabel;html=1;align=center;verticalAlign=middle;resizable=0;points=[];" parent="7fCs2FhCf5SG8tmUMnyu-29" vertex="1" connectable="0">
          <mxGeometry x="0.3591" y="-1" relative="1" as="geometry">
            <mxPoint as="offset" />
          </mxGeometry>
        </mxCell>
        <mxCell id="7fCs2FhCf5SG8tmUMnyu-30" value="" style="edgeStyle=segmentEdgeStyle;endArrow=classic;html=1;curved=0;rounded=0;endSize=8;startSize=8;sourcePerimeterSpacing=0;targetPerimeterSpacing=0;exitX=1;exitY=0.5;exitDx=0;exitDy=0;" parent="1" source="7fCs2FhCf5SG8tmUMnyu-8" edge="1">
          <mxGeometry width="100" relative="1" as="geometry">
            <mxPoint x="480" y="690" as="sourcePoint" />
            <mxPoint x="700" y="540" as="targetPoint" />
            <Array as="points">
              <mxPoint x="480" y="685" />
              <mxPoint x="480" y="740" />
              <mxPoint x="700" y="740" />
            </Array>
          </mxGeometry>
        </mxCell>
        <mxCell id="7fCs2FhCf5SG8tmUMnyu-42" value="Rental Information" style="edgeLabel;html=1;align=center;verticalAlign=middle;resizable=0;points=[];" parent="7fCs2FhCf5SG8tmUMnyu-30" vertex="1" connectable="0">
          <mxGeometry x="-0.3424" y="-5" relative="1" as="geometry">
            <mxPoint x="22" y="-5" as="offset" />
          </mxGeometry>
        </mxCell>
        <mxCell id="7fCs2FhCf5SG8tmUMnyu-45" value="DATA FLOW DIAGRAN LEVEL-1" style="text;html=1;align=center;verticalAlign=middle;resizable=0;points=[];autosize=1;strokeColor=none;fillColor=none;" parent="1" vertex="1">
          <mxGeometry x="260" y="1068" width="200" height="30" as="geometry" />
        </mxCell>
        <mxCell id="Kc1eUh-HYAJDP7CWUer0-4" value="" style="edgeStyle=segmentEdgeStyle;endArrow=classic;html=1;curved=0;rounded=0;endSize=8;startSize=8;sourcePerimeterSpacing=0;targetPerimeterSpacing=0;entryX=0.005;entryY=0.39;entryDx=0;entryDy=0;entryPerimeter=0;exitX=0.5;exitY=1;exitDx=0;exitDy=0;" edge="1" parent="1" source="7fCs2FhCf5SG8tmUMnyu-12" target="7fCs2FhCf5SG8tmUMnyu-10">
          <mxGeometry width="100" relative="1" as="geometry">
            <mxPoint x="-141" y="942" as="sourcePoint" />
            <mxPoint x="-337.9800000000001" y="595" as="targetPoint" />
            <Array as="points">
              <mxPoint x="-10" y="550" />
              <mxPoint x="-10" y="942" />
            </Array>
          </mxGeometry>
        </mxCell>
        <mxCell id="Kc1eUh-HYAJDP7CWUer0-5" value="Transaction Details" style="edgeLabel;html=1;align=center;verticalAlign=middle;resizable=0;points=[];" connectable="0" vertex="1" parent="Kc1eUh-HYAJDP7CWUer0-4">
          <mxGeometry x="-0.5062" y="-1" relative="1" as="geometry">
            <mxPoint x="120" y="247" as="offset" />
          </mxGeometry>
        </mxCell>
      </root>
    </mxGraphModel>
  </diagram>
</mxfile>
